<svg xmlns="http://www.w3.org/2000/svg" xmlns:xlink="http://www.w3.org/1999/xlink" width="500" zoomAndPan="magnify" viewBox="0 0 375 374.999991" height="500" preserveAspectRatio="xMidYMid meet" version="1.0"><defs><g/></defs><path stroke-linecap="butt" transform="matrix(0.910328, 0, 0, 0.910328, 47.445369, 6.579534)" fill="none" stroke-linejoin="miter" d="M 10.199734 364.599312 L 10.199734 368.002104 L 101.916366 368.002104 L 101.916366 364.599312 C 72.724439 364.599312 70.651868 340.470809 70.651868 273.547791 L 70.651868 201.239521 C 70.651868 185.233952 76.788051 171.300953 94.449961 171.300953 C 118.582755 171.300953 135.832725 201.239521 177.292727 201.239521 C 204.158912 201.239521 220.743771 183.908021 220.743771 163.838839 L 217.34527 163.838839 C 217.34527 175.780796 205.154433 183.24291 192.221246 183.24291 C 162.3685 183.24291 143.706778 162.182499 110.039299 162.182499 C 89.639708 162.182499 74.71548 173.043115 70.651868 182.16586 L 70.651868 31.739255 L 126.709979 31.739255 C 204.824023 31.739255 249.686818 50.066276 249.686818 72.868848 L 249.686818 74.19907 L 253.08532 74.19907 L 253.08532 28.340754 L 10.199734 28.340754 L 10.199734 31.739255 C 39.38737 31.739255 41.464232 55.872049 41.464232 122.790776 L 41.464232 273.547791 C 41.464232 340.470809 39.38737 364.599312 10.199734 364.599312 Z M 10.199734 364.599312 " stroke="#ffff" stroke-width="6.368681" stroke-opacity="1" stroke-miterlimit="4"/><g fill="#ffff" fill-opacity="1"><g transform="translate(23.324747, 320.818444)"><g><path d="M 236.09375 30.09375 C 230.875 30.09375 227.375 27.582031 225.59375 22.5625 C 223.820312 17.550781 222.9375 12.539062 222.9375 7.53125 C 222.9375 -10.445312 232.550781 -36.265625 251.78125 -69.921875 C 264.113281 -91.035156 283.132812 -119.460938 308.84375 -155.203125 C 281.039062 -152.691406 245.085938 -130.742188 200.984375 -89.359375 C 165.867188 -56.117188 140.890625 -27.585938 126.046875 -3.765625 C 121.023438 3.972656 118.515625 9.515625 118.515625 12.859375 C 118.515625 14.316406 118.984375 15.253906 119.921875 15.671875 C 120.867188 16.085938 121.34375 16.296875 121.34375 16.296875 C 121.34375 16.722656 119.359375 18.289062 115.390625 21 C 112.460938 22.675781 108.800781 23.515625 104.40625 23.515625 C 95.625 23.515625 91.863281 21.53125 93.125 17.5625 C 96.050781 8.363281 105.769531 -8.566406 122.28125 -33.234375 C 143.8125 -65.210938 157.816406 -87.054688 164.296875 -98.765625 C 178.515625 -124.265625 185.625 -144.4375 185.625 -159.28125 C 185.625 -169.726562 183.0625 -176.9375 177.9375 -180.90625 C 172.8125 -184.882812 165.648438 -186.875 156.453125 -186.875 C 131.578125 -186.875 105.132812 -175.484375 77.125 -152.703125 C 65.632812 -143.296875 54.972656 -132.894531 45.140625 -121.5 C 35.316406 -110.101562 27.375 -98.34375 21.3125 -86.21875 C 15.257812 -74.101562 12.234375 -62.191406 12.234375 -50.484375 C 12.234375 -30.410156 21.535156 -20.164062 40.140625 -19.75 C 66.054688 -19.125 85.597656 -27.800781 98.765625 -45.78125 C 103.785156 -52.675781 106.296875 -59.15625 106.296875 -65.21875 C 106.296875 -68.769531 105.144531 -71.171875 102.84375 -72.421875 C 102.632812 -72.640625 102.53125 -72.957031 102.53125 -73.375 C 102.53125 -74.207031 103.15625 -74.625 104.40625 -74.625 C 109.84375 -74.625 112.5625 -71.070312 112.5625 -63.96875 C 112.5625 -59.570312 110.785156 -54.03125 107.234375 -47.34375 C 101.378906 -37.3125 92.703125 -29.367188 81.203125 -23.515625 C 69.710938 -17.660156 57.800781 -14.734375 45.46875 -14.734375 C 31.875 -14.734375 21 -18.804688 12.84375 -26.953125 C 4.695312 -35.109375 0.625 -46.085938 0.625 -59.890625 C 0.625 -92.492188 22.988281 -126.773438 67.71875 -162.734375 C 75.25 -168.796875 84.445312 -174.226562 95.3125 -179.03125 C 106.1875 -183.84375 117.421875 -187.609375 129.015625 -190.328125 C 140.617188 -193.046875 151.332031 -194.40625 161.15625 -194.40625 C 173.488281 -194.40625 183.257812 -192.050781 190.46875 -187.34375 C 197.6875 -182.644531 201.296875 -174.546875 201.296875 -163.046875 C 201.296875 -148.203125 195.234375 -128.550781 183.109375 -104.09375 C 180.390625 -98.664062 176.941406 -92.394531 172.765625 -85.28125 C 168.585938 -78.175781 163.675781 -70.335938 158.03125 -61.765625 C 164.507812 -69.921875 175.066406 -80.269531 189.703125 -92.8125 C 216.035156 -114.96875 240.382812 -133.203125 262.75 -147.515625 C 285.113281 -161.835938 305.492188 -172.34375 323.890625 -179.03125 C 325.773438 -179.875 327.867188 -180.296875 330.171875 -180.296875 C 338.109375 -180.296875 343.125 -175.800781 345.21875 -166.8125 C 346.257812 -163.257812 341.242188 -155.835938 330.171875 -144.546875 C 304.035156 -117.785156 281.457031 -87.894531 262.4375 -54.875 C 245.09375 -24.351562 236.421875 -2.195312 236.421875 11.59375 C 236.421875 17.445312 238.40625 20.375 242.375 20.375 C 244.882812 20.375 251.15625 18.179688 261.1875 13.796875 C 269.96875 9.828125 275.710938 7.523438 278.421875 6.890625 C 279.472656 7.316406 280 7.84375 280 8.46875 C 280 11.601562 274.457031 15.992188 263.375 21.640625 C 252.507812 27.273438 243.414062 30.09375 236.09375 30.09375 Z M 236.09375 30.09375 "/></g></g></g></svg>