<svg xmlns="http://www.w3.org/2000/svg" xmlns:xlink="http://www.w3.org/1999/xlink" width="500" zoomAndPan="magnify" viewBox="0 0 375 374.999991" height="500" preserveAspectRatio="xMidYMid meet" version="1.0"><defs><g/></defs><g fill="#000000" fill-opacity="1"><g transform="translate(0.0000045, 244.029568)"><g><path d="M 68.222656 -93.707031 C 67.910156 -96.039062 67.601562 -96.503906 65.582031 -96.503906 L 4.195312 -96.503906 L 4.195312 -94.175781 C 12.121094 -93.554688 14.761719 -92.464844 14.761719 -87.957031 L 14.761719 -10.101562 C 14.761719 -4.664062 11.8125 -3.261719 3.886719 -2.332031 L 3.886719 0 C 14.609375 -0.464844 26.109375 -0.464844 36.832031 0 L 36.832031 -2.332031 C 28.90625 -3.261719 25.953125 -4.664062 25.953125 -10.101562 L 25.953125 -47.085938 L 48.175781 -47.085938 C 55.789062 -47.085938 57.1875 -42.582031 58.898438 -36.519531 L 61.851562 -36.519531 C 61.074219 -44.601562 61.074219 -53.148438 61.851562 -61.230469 L 58.898438 -61.230469 C 57.1875 -55.324219 55.945312 -50.507812 48.175781 -50.507812 L 25.953125 -50.507812 L 25.953125 -90.445312 C 25.953125 -92.464844 26.574219 -93.242188 28.4375 -93.242188 L 47.242188 -93.242188 C 56.257812 -93.242188 62.628906 -90.289062 66.046875 -81.585938 L 67.445312 -78.167969 L 69.933594 -78.167969 Z M 68.222656 -93.707031 "/></g></g></g><g fill="#000000" fill-opacity="1"><g transform="translate(65.423812, 244.029568)"><g><path d="M 59.984375 -96.503906 L 59.984375 -94.175781 C 69.933594 -93.085938 73.039062 -92.777344 73.039062 -87.648438 L 73.039062 -23.15625 L 26.886719 -96.503906 C 19.425781 -96.039062 11.964844 -96.039062 4.039062 -96.503906 L 4.039062 -94.175781 C 11.964844 -93.242188 15.539062 -91.378906 15.539062 -87.492188 L 15.539062 -9.011719 C 15.539062 -3.730469 12.742188 -3.417969 2.332031 -2.332031 L 2.332031 0 C 12.585938 -0.464844 22.6875 -0.464844 32.324219 0 L 32.324219 -2.332031 C 23 -3.417969 19.734375 -3.730469 19.734375 -9.011719 L 19.734375 -86.09375 L 74.4375 0 L 77.234375 0 L 77.234375 -87.648438 C 77.234375 -92.777344 80.03125 -93.085938 90.601562 -94.175781 L 90.601562 -96.503906 C 80.34375 -96.039062 70.242188 -96.039062 59.984375 -96.503906 Z M 59.984375 -96.503906 "/></g></g></g><path stroke-linecap="butt" transform="matrix(0.75, 0, 0, 0.75, 151.771694, 147.945165)" fill="none" stroke-linejoin="miter" d="M 0.00232502 1.000196 L 297.637761 1.000196 " stroke="#000000" stroke-width="2" stroke-opacity="1" stroke-miterlimit="4"/><path stroke-linecap="butt" transform="matrix(0.75, 0, 0, 0.75, 142.078486, 242.339295)" fill="none" stroke-linejoin="miter" d="M -0.00048076 1.000731 L 310.56204 1.000731 " stroke="#000000" stroke-width="2" stroke-opacity="1" stroke-miterlimit="4"/><g fill="#000000" fill-opacity="1"><g transform="translate(151.771694, 188.713114)"><g><path d="M 3.75 -12.6875 L 3.75 -7.203125 L 10.96875 -7.203125 L 10.96875 -5.921875 L 3.75 -5.921875 L 3.75 0 L 2.265625 0 L 2.265625 -13.953125 L 11.84375 -13.953125 L 11.84375 -12.6875 Z M 3.75 -12.6875 "/></g></g></g><g fill="#000000" fill-opacity="1"><g transform="translate(175.345694, 188.713114)"><g><path d="M 2.265625 -13.953125 L 3.75 -13.953125 L 3.75 -1.28125 L 11.5625 -1.28125 L 11.5625 0 L 2.265625 0 Z M 2.265625 -13.953125 "/></g></g></g><g fill="#000000" fill-opacity="1"><g transform="translate(198.043054, 188.713114)"><g><path d="M 8.375 0.125 C 6.988281 0.125 5.734375 -0.179688 4.609375 -0.796875 C 3.492188 -1.421875 2.617188 -2.269531 1.984375 -3.34375 C 1.347656 -4.425781 1.03125 -5.640625 1.03125 -6.984375 C 1.03125 -8.316406 1.347656 -9.519531 1.984375 -10.59375 C 2.617188 -11.675781 3.492188 -12.523438 4.609375 -13.140625 C 5.734375 -13.765625 6.988281 -14.078125 8.375 -14.078125 C 9.757812 -14.078125 11.003906 -13.769531 12.109375 -13.15625 C 13.222656 -12.539062 14.097656 -11.691406 14.734375 -10.609375 C 15.367188 -9.523438 15.6875 -8.316406 15.6875 -6.984375 C 15.6875 -5.640625 15.367188 -4.425781 14.734375 -3.34375 C 14.097656 -2.257812 13.222656 -1.410156 12.109375 -0.796875 C 11.003906 -0.179688 9.757812 0.125 8.375 0.125 Z M 8.375 -1.203125 C 9.476562 -1.203125 10.472656 -1.445312 11.359375 -1.9375 C 12.253906 -2.4375 12.953125 -3.128906 13.453125 -4.015625 C 13.960938 -4.898438 14.21875 -5.890625 14.21875 -6.984375 C 14.21875 -8.066406 13.960938 -9.050781 13.453125 -9.9375 C 12.953125 -10.820312 12.253906 -11.515625 11.359375 -12.015625 C 10.472656 -12.515625 9.476562 -12.765625 8.375 -12.765625 C 7.269531 -12.765625 6.269531 -12.515625 5.375 -12.015625 C 4.476562 -11.515625 3.773438 -10.820312 3.265625 -9.9375 C 2.753906 -9.050781 2.5 -8.066406 2.5 -6.984375 C 2.5 -5.890625 2.753906 -4.898438 3.265625 -4.015625 C 3.773438 -3.128906 4.476562 -2.4375 5.375 -1.9375 C 6.269531 -1.445312 7.269531 -1.203125 8.375 -1.203125 Z M 8.375 -1.203125 "/></g></g></g><g fill="#000000" fill-opacity="1"><g transform="translate(225.721336, 188.713114)"><g><path d="M 11.796875 0 L 8.609375 -4.484375 C 8.253906 -4.441406 7.882812 -4.421875 7.5 -4.421875 L 3.75 -4.421875 L 3.75 0 L 2.265625 0 L 2.265625 -13.953125 L 7.5 -13.953125 C 9.28125 -13.953125 10.675781 -13.523438 11.6875 -12.671875 C 12.695312 -11.828125 13.203125 -10.660156 13.203125 -9.171875 C 13.203125 -8.078125 12.925781 -7.15625 12.375 -6.40625 C 11.820312 -5.65625 11.035156 -5.113281 10.015625 -4.78125 L 13.421875 0 Z M 7.453125 -5.6875 C 8.835938 -5.6875 9.894531 -5.988281 10.625 -6.59375 C 11.351562 -7.207031 11.71875 -8.066406 11.71875 -9.171875 C 11.71875 -10.296875 11.351562 -11.160156 10.625 -11.765625 C 9.894531 -12.378906 8.835938 -12.6875 7.453125 -12.6875 L 3.75 -12.6875 L 3.75 -5.6875 Z M 7.453125 -5.6875 "/></g></g></g><g fill="#000000" fill-opacity="1"><g transform="translate(251.088475, 188.713114)"><g><path d="M 12.140625 -1.28125 L 12.140625 0 L 2.265625 0 L 2.265625 -13.953125 L 11.84375 -13.953125 L 11.84375 -12.6875 L 3.75 -12.6875 L 3.75 -7.71875 L 10.96875 -7.71875 L 10.96875 -6.453125 L 3.75 -6.453125 L 3.75 -1.28125 Z M 12.140625 -1.28125 "/></g></g></g><g fill="#000000" fill-opacity="1"><g transform="translate(275.379727, 188.713114)"><g><path d="M 13.9375 -13.953125 L 13.9375 0 L 12.71875 0 L 3.75 -11.328125 L 3.75 0 L 2.265625 0 L 2.265625 -13.953125 L 3.484375 -13.953125 L 12.484375 -2.625 L 12.484375 -13.953125 Z M 13.9375 -13.953125 "/></g></g></g><g fill="#000000" fill-opacity="1"><g transform="translate(302.539986, 188.713114)"><g><path d="M 8.328125 0.125 C 6.953125 0.125 5.707031 -0.179688 4.59375 -0.796875 C 3.488281 -1.410156 2.617188 -2.257812 1.984375 -3.34375 C 1.347656 -4.425781 1.03125 -5.640625 1.03125 -6.984375 C 1.03125 -8.316406 1.347656 -9.523438 1.984375 -10.609375 C 2.617188 -11.691406 3.492188 -12.539062 4.609375 -13.15625 C 5.722656 -13.769531 6.972656 -14.078125 8.359375 -14.078125 C 9.390625 -14.078125 10.34375 -13.90625 11.21875 -13.5625 C 12.101562 -13.21875 12.847656 -12.710938 13.453125 -12.046875 L 12.515625 -11.109375 C 11.429688 -12.210938 10.054688 -12.765625 8.390625 -12.765625 C 7.285156 -12.765625 6.28125 -12.507812 5.375 -12 C 4.476562 -11.5 3.773438 -10.804688 3.265625 -9.921875 C 2.753906 -9.046875 2.5 -8.066406 2.5 -6.984375 C 2.5 -5.890625 2.753906 -4.90625 3.265625 -4.03125 C 3.773438 -3.15625 4.476562 -2.460938 5.375 -1.953125 C 6.28125 -1.453125 7.285156 -1.203125 8.390625 -1.203125 C 10.066406 -1.203125 11.441406 -1.757812 12.515625 -2.875 L 13.453125 -1.9375 C 12.847656 -1.269531 12.101562 -0.757812 11.21875 -0.40625 C 10.332031 -0.0507812 9.367188 0.125 8.328125 0.125 Z M 8.328125 0.125 "/></g></g></g><g fill="#000000" fill-opacity="1"><g transform="translate(327.827439, 188.713114)"><g><path d="M 2.265625 -13.953125 L 3.75 -13.953125 L 3.75 0 L 2.265625 0 Z M 2.265625 -13.953125 "/></g></g></g><g fill="#000000" fill-opacity="1"><g transform="translate(344.806714, 188.713114)"><g><path d="M 11.03125 -3.734375 L 3.25 -3.734375 L 1.578125 0 L 0.046875 0 L 6.421875 -13.953125 L 7.875 -13.953125 L 14.25 0 L 12.703125 0 Z M 10.484375 -4.921875 L 7.140625 -12.421875 L 3.78125 -4.921875 Z M 10.484375 -4.921875 "/></g></g></g><g fill="#000000" fill-opacity="1"><g transform="translate(151.771694, 217.85207)"><g><path d="M 13.9375 -13.953125 L 13.9375 0 L 12.71875 0 L 3.75 -11.328125 L 3.75 0 L 2.265625 0 L 2.265625 -13.953125 L 3.484375 -13.953125 L 12.484375 -2.625 L 12.484375 -13.953125 Z M 13.9375 -13.953125 "/></g></g></g><g fill="#000000" fill-opacity="1"><g transform="translate(178.931953, 217.85207)"><g><path d="M 2.265625 -13.953125 L 3.75 -13.953125 L 3.75 0 L 2.265625 0 Z M 2.265625 -13.953125 "/></g></g></g><g fill="#000000" fill-opacity="1"><g transform="translate(195.911237, 217.85207)"><g><path d="M 12.140625 -1.28125 L 12.140625 0 L 2.265625 0 L 2.265625 -13.953125 L 11.84375 -13.953125 L 11.84375 -12.6875 L 3.75 -12.6875 L 3.75 -7.71875 L 10.96875 -7.71875 L 10.96875 -6.453125 L 3.75 -6.453125 L 3.75 -1.28125 Z M 12.140625 -1.28125 "/></g></g></g><g fill="#000000" fill-opacity="1"><g transform="translate(220.202489, 217.85207)"><g><path d="M 13.875 -13.953125 L 7.703125 0 L 6.234375 0 L 0.0625 -13.953125 L 1.65625 -13.953125 L 7 -1.828125 L 12.375 -13.953125 Z M 13.875 -13.953125 "/></g></g></g><g fill="#000000" fill-opacity="1"><g transform="translate(245.071541, 217.85207)"><g><path d="M 11.03125 -3.734375 L 3.25 -3.734375 L 1.578125 0 L 0.046875 0 L 6.421875 -13.953125 L 7.875 -13.953125 L 14.25 0 L 12.703125 0 Z M 10.484375 -4.921875 L 7.140625 -12.421875 L 3.78125 -4.921875 Z M 10.484375 -4.921875 "/></g></g></g></svg>