<svg xmlns="http://www.w3.org/2000/svg" xmlns:xlink="http://www.w3.org/1999/xlink" width="500" zoomAndPan="magnify" viewBox="0 0 375 374.999991" height="500" preserveAspectRatio="xMidYMid meet" version="1.0"><defs><g/><clipPath id="3343197e99"><path d="M 258.039062 201.917969 L 368.289062 201.917969 L 368.289062 219 L 258.039062 219 Z M 258.039062 201.917969 " clip-rule="nonzero"/></clipPath><clipPath id="78f3726fce"><path d="M 258.039062 229 L 355 229 L 355 241.667969 L 258.039062 241.667969 Z M 258.039062 229 " clip-rule="nonzero"/></clipPath><clipPath id="f688d8e959"><path d="M 258.039062 167.242188 L 354.789062 167.242188 L 354.789062 183 L 258.039062 183 Z M 258.039062 167.242188 " clip-rule="nonzero"/></clipPath><clipPath id="d53811a47d"><path d="M 258.039062 191 L 343 191 L 343 201.742188 L 258.039062 201.742188 Z M 258.039062 191 " clip-rule="nonzero"/></clipPath><clipPath id="f3dcb36a98"><path d="M 258 206 L 268 206 L 268 216 L 258 216 Z M 258 206 " clip-rule="nonzero"/></clipPath><clipPath id="9195766b06"><path d="M 269.042969 179.570312 L 291.316406 201.84375 L 269.042969 224.117188 L 246.769531 201.84375 Z M 269.042969 179.570312 " clip-rule="nonzero"/></clipPath><clipPath id="ef7701dce1"><path d="M 269.042969 179.570312 L 291.316406 201.84375 L 269.042969 224.117188 L 246.769531 201.84375 Z M 269.042969 179.570312 " clip-rule="nonzero"/></clipPath><clipPath id="a22980489e"><path d="M 250 201 L 266 201 L 266 203 L 250 203 Z M 250 201 " clip-rule="nonzero"/></clipPath><clipPath id="1a17c24464"><path d="M 269.042969 179.570312 L 291.316406 201.84375 L 269.042969 224.117188 L 246.769531 201.84375 Z M 269.042969 179.570312 " clip-rule="nonzero"/></clipPath><clipPath id="e4d8e58fe0"><path d="M 269.042969 179.570312 L 291.316406 201.84375 L 269.042969 224.117188 L 246.769531 201.84375 Z M 269.042969 179.570312 " clip-rule="nonzero"/></clipPath><clipPath id="47659f1368"><path d="M 275 201 L 288 201 L 288 203 L 275 203 Z M 275 201 " clip-rule="nonzero"/></clipPath><clipPath id="b5425143e2"><path d="M 269.042969 179.570312 L 291.316406 201.84375 L 269.042969 224.117188 L 246.769531 201.84375 Z M 269.042969 179.570312 " clip-rule="nonzero"/></clipPath><clipPath id="fe79076bd7"><path d="M 269.042969 179.570312 L 291.316406 201.84375 L 269.042969 224.117188 L 246.769531 201.84375 Z M 269.042969 179.570312 " clip-rule="nonzero"/></clipPath><clipPath id="f60000a1d1"><path d="M 267 185 L 280 185 L 280 198 L 267 198 Z M 267 185 " clip-rule="nonzero"/></clipPath><clipPath id="c865335bc0"><path d="M 269.042969 179.570312 L 291.316406 201.84375 L 269.042969 224.117188 L 246.769531 201.84375 Z M 269.042969 179.570312 " clip-rule="nonzero"/></clipPath><clipPath id="17cbca7fe6"><path d="M 269.042969 179.570312 L 291.316406 201.84375 L 269.042969 224.117188 L 246.769531 201.84375 Z M 269.042969 179.570312 " clip-rule="nonzero"/></clipPath><clipPath id="75f7021327"><path d="M 255 189 L 264 189 L 264 198 L 255 198 Z M 255 189 " clip-rule="nonzero"/></clipPath><clipPath id="b0d832a549"><path d="M 269.042969 179.570312 L 291.316406 201.84375 L 269.042969 224.117188 L 246.769531 201.84375 Z M 269.042969 179.570312 " clip-rule="nonzero"/></clipPath><clipPath id="5d5ea85273"><path d="M 269.042969 179.570312 L 291.316406 201.84375 L 269.042969 224.117188 L 246.769531 201.84375 Z M 269.042969 179.570312 " clip-rule="nonzero"/></clipPath><clipPath id="5a99cc62fc"><path d="M 272 206 L 283 206 L 283 208 L 272 208 Z M 272 206 " clip-rule="nonzero"/></clipPath><clipPath id="d1c7582f74"><path d="M 269.042969 179.570312 L 291.316406 201.84375 L 269.042969 224.117188 L 246.769531 201.84375 Z M 269.042969 179.570312 " clip-rule="nonzero"/></clipPath><clipPath id="3e06fd9571"><path d="M 269.042969 179.570312 L 291.316406 201.84375 L 269.042969 224.117188 L 246.769531 201.84375 Z M 269.042969 179.570312 " clip-rule="nonzero"/></clipPath><clipPath id="d2529a27c2"><path d="M 265 214 L 269 214 L 269 219 L 265 219 Z M 265 214 " clip-rule="nonzero"/></clipPath><clipPath id="c866a82c9f"><path d="M 269.042969 179.570312 L 291.316406 201.84375 L 269.042969 224.117188 L 246.769531 201.84375 Z M 269.042969 179.570312 " clip-rule="nonzero"/></clipPath><clipPath id="330b86ebf7"><path d="M 269.042969 179.570312 L 291.316406 201.84375 L 269.042969 224.117188 L 246.769531 201.84375 Z M 269.042969 179.570312 " clip-rule="nonzero"/></clipPath><clipPath id="159c89037b"><path d="M 269 204 L 274 204 L 274 209 L 269 209 Z M 269 204 " clip-rule="nonzero"/></clipPath><clipPath id="4654c874b1"><path d="M 269.042969 179.570312 L 291.316406 201.84375 L 269.042969 224.117188 L 246.769531 201.84375 Z M 269.042969 179.570312 " clip-rule="nonzero"/></clipPath><clipPath id="353b153cb9"><path d="M 269.042969 179.570312 L 291.316406 201.84375 L 269.042969 224.117188 L 246.769531 201.84375 Z M 269.042969 179.570312 " clip-rule="nonzero"/></clipPath><clipPath id="18f1e16f06"><path d="M 255 204 L 259 204 L 259 209 L 255 209 Z M 255 204 " clip-rule="nonzero"/></clipPath><clipPath id="35303f246b"><path d="M 269.042969 179.570312 L 291.316406 201.84375 L 269.042969 224.117188 L 246.769531 201.84375 Z M 269.042969 179.570312 " clip-rule="nonzero"/></clipPath><clipPath id="e8439876cd"><path d="M 269.042969 179.570312 L 291.316406 201.84375 L 269.042969 224.117188 L 246.769531 201.84375 Z M 269.042969 179.570312 " clip-rule="nonzero"/></clipPath><clipPath id="b53b775c69"><path d="M 281 204 L 286 204 L 286 209 L 281 209 Z M 281 204 " clip-rule="nonzero"/></clipPath><clipPath id="01a1dc54a7"><path d="M 269.042969 179.570312 L 291.316406 201.84375 L 269.042969 224.117188 L 246.769531 201.84375 Z M 269.042969 179.570312 " clip-rule="nonzero"/></clipPath><clipPath id="862e0f2dbb"><path d="M 269.042969 179.570312 L 291.316406 201.84375 L 269.042969 224.117188 L 246.769531 201.84375 Z M 269.042969 179.570312 " clip-rule="nonzero"/></clipPath><clipPath id="34fe838759"><path d="M 266 182 L 270 182 L 270 186 L 266 186 Z M 266 182 " clip-rule="nonzero"/></clipPath><clipPath id="962f95180f"><path d="M 269.042969 179.570312 L 291.316406 201.84375 L 269.042969 224.117188 L 246.769531 201.84375 Z M 269.042969 179.570312 " clip-rule="nonzero"/></clipPath><clipPath id="cd3bae958a"><path d="M 269.042969 179.570312 L 291.316406 201.84375 L 269.042969 224.117188 L 246.769531 201.84375 Z M 269.042969 179.570312 " clip-rule="nonzero"/></clipPath><clipPath id="e49d37f590"><path d="M 265 200 L 269 200 L 269 204 L 265 204 Z M 265 200 " clip-rule="nonzero"/></clipPath><clipPath id="ca7187195d"><path d="M 269.042969 179.570312 L 291.316406 201.84375 L 269.042969 224.117188 L 246.769531 201.84375 Z M 269.042969 179.570312 " clip-rule="nonzero"/></clipPath><clipPath id="1229dd4dc8"><path d="M 269.042969 179.570312 L 291.316406 201.84375 L 269.042969 224.117188 L 246.769531 201.84375 Z M 269.042969 179.570312 " clip-rule="nonzero"/></clipPath><clipPath id="5616bee753"><path d="M 247 200 L 252 200 L 252 204 L 247 204 Z M 247 200 " clip-rule="nonzero"/></clipPath><clipPath id="02707911d0"><path d="M 269.042969 179.570312 L 291.316406 201.84375 L 269.042969 224.117188 L 246.769531 201.84375 Z M 269.042969 179.570312 " clip-rule="nonzero"/></clipPath><clipPath id="6f8d0fbf0b"><path d="M 269.042969 179.570312 L 291.316406 201.84375 L 269.042969 224.117188 L 246.769531 201.84375 Z M 269.042969 179.570312 " clip-rule="nonzero"/></clipPath><clipPath id="5b5af203f9"><path d="M 261 186 L 265 186 L 265 191 L 261 191 Z M 261 186 " clip-rule="nonzero"/></clipPath><clipPath id="75c0789c0f"><path d="M 269.042969 179.570312 L 291.316406 201.84375 L 269.042969 224.117188 L 246.769531 201.84375 Z M 269.042969 179.570312 " clip-rule="nonzero"/></clipPath><clipPath id="0981f55b13"><path d="M 269.042969 179.570312 L 291.316406 201.84375 L 269.042969 224.117188 L 246.769531 201.84375 Z M 269.042969 179.570312 " clip-rule="nonzero"/></clipPath><clipPath id="aa467b25b0"><path d="M 252 195 L 257 195 L 257 199 L 252 199 Z M 252 195 " clip-rule="nonzero"/></clipPath><clipPath id="d2dbd196df"><path d="M 269.042969 179.570312 L 291.316406 201.84375 L 269.042969 224.117188 L 246.769531 201.84375 Z M 269.042969 179.570312 " clip-rule="nonzero"/></clipPath><clipPath id="13b23df441"><path d="M 269.042969 179.570312 L 291.316406 201.84375 L 269.042969 224.117188 L 246.769531 201.84375 Z M 269.042969 179.570312 " clip-rule="nonzero"/></clipPath><clipPath id="da9fb05d88"><path d="M 272 200 L 277 200 L 277 204 L 272 204 Z M 272 200 " clip-rule="nonzero"/></clipPath><clipPath id="af9061aa34"><path d="M 269.042969 179.570312 L 291.316406 201.84375 L 269.042969 224.117188 L 246.769531 201.84375 Z M 269.042969 179.570312 " clip-rule="nonzero"/></clipPath><clipPath id="54a6b5b6e1"><path d="M 269.042969 179.570312 L 291.316406 201.84375 L 269.042969 224.117188 L 246.769531 201.84375 Z M 269.042969 179.570312 " clip-rule="nonzero"/></clipPath><clipPath id="94bd73cc7c"><path d="M 286 200 L 291 200 L 291 204 L 286 204 Z M 286 200 " clip-rule="nonzero"/></clipPath><clipPath id="c728d94a2b"><path d="M 269.042969 179.570312 L 291.316406 201.84375 L 269.042969 224.117188 L 246.769531 201.84375 Z M 269.042969 179.570312 " clip-rule="nonzero"/></clipPath><clipPath id="c3fa776475"><path d="M 269.042969 179.570312 L 291.316406 201.84375 L 269.042969 224.117188 L 246.769531 201.84375 Z M 269.042969 179.570312 " clip-rule="nonzero"/></clipPath><clipPath id="08eacff4b7"><path d="M 278 195 L 283 195 L 283 199 L 278 199 Z M 278 195 " clip-rule="nonzero"/></clipPath><clipPath id="8ec2f8ca48"><path d="M 269.042969 179.570312 L 291.316406 201.84375 L 269.042969 224.117188 L 246.769531 201.84375 Z M 269.042969 179.570312 " clip-rule="nonzero"/></clipPath><clipPath id="15fd7c69b8"><path d="M 269.042969 179.570312 L 291.316406 201.84375 L 269.042969 224.117188 L 246.769531 201.84375 Z M 269.042969 179.570312 " clip-rule="nonzero"/></clipPath><clipPath id="9580a0834f"><path d="M 246.695312 177.882812 L 256.148438 177.882812 L 256.148438 241.453125 L 246.695312 241.453125 Z M 246.695312 177.882812 " clip-rule="nonzero"/></clipPath></defs><g fill="#ffffff" fill-opacity="1"><g transform="translate(-3.808927, 241.595403)"><g><path d="M 119.308594 -91.355469 L 29.417969 -91.355469 C 27.222656 -91.355469 25.761719 -90.808594 24.117188 -89.164062 L 7.675781 -72.71875 C 6.578125 -71.621094 5.480469 -69.796875 5.480469 -67.96875 L 5.480469 -2.742188 C 5.480469 -1.277344 6.761719 0 8.222656 0 L 21.925781 0 C 23.386719 0 24.664062 -1.277344 24.664062 -2.742188 L 24.664062 -26.859375 L 102.136719 -26.859375 C 103.597656 -26.859375 104.875 -28.136719 104.875 -29.597656 L 104.875 -42.207031 C 104.875 -43.667969 103.597656 -44.945312 102.136719 -44.945312 L 24.664062 -44.945312 L 24.664062 -63.21875 C 24.664062 -64.496094 25.03125 -65.410156 25.945312 -66.324219 L 31.792969 -71.804688 C 32.886719 -72.902344 33.617188 -73.265625 34.53125 -73.265625 L 119.308594 -73.265625 C 120.773438 -73.265625 122.050781 -74.546875 122.050781 -76.007812 L 122.050781 -88.613281 C 122.050781 -90.078125 120.773438 -91.355469 119.308594 -91.355469 Z M 119.308594 -91.355469 "/></g></g></g><g fill="#ffffff" fill-opacity="1"><g transform="translate(123.723095, 241.595403)"><g><path d="M 119.859375 -39.832031 L 110.539062 -48.785156 L 112.914062 -51.160156 C 114.378906 -52.621094 115.109375 -54.265625 115.109375 -56.640625 L 115.109375 -71.441406 C 115.109375 -73.816406 114.378906 -75.460938 112.914062 -76.921875 L 100.125 -89.34375 C 98.847656 -90.441406 97.203125 -91.355469 95.375 -91.355469 L 8.222656 -91.355469 C 6.761719 -91.355469 5.480469 -90.078125 5.480469 -88.613281 L 5.480469 -2.742188 C 5.480469 -1.277344 6.761719 0 8.222656 0 L 102.316406 0 C 104.144531 0 105.789062 -0.914062 107.070312 -2.011719 L 119.859375 -14.433594 C 121.320312 -15.894531 122.050781 -17.539062 122.050781 -19.914062 L 122.050781 -34.351562 C 122.050781 -36.726562 121.320312 -38.371094 119.859375 -39.832031 Z M 90.625 -73.632812 C 91.902344 -73.632812 93 -73.265625 93.730469 -72.355469 L 96.472656 -69.066406 C 96.835938 -68.515625 97.019531 -67.96875 97.019531 -67.238281 L 97.019531 -60.84375 C 97.019531 -60.113281 96.835938 -59.5625 96.472656 -59.015625 L 93.730469 -55.726562 C 93 -54.8125 91.902344 -54.449219 90.625 -54.449219 L 23.386719 -54.449219 L 23.386719 -73.632812 Z M 103.960938 -24.117188 C 103.960938 -23.386719 103.78125 -22.839844 103.414062 -22.289062 L 100.671875 -19 C 99.941406 -18.089844 98.847656 -17.722656 97.566406 -17.722656 L 23.386719 -17.722656 L 23.386719 -36.542969 L 97.566406 -36.542969 C 98.847656 -36.542969 99.941406 -36.175781 100.671875 -35.261719 L 103.414062 -31.972656 C 103.78125 -31.425781 103.960938 -30.878906 103.960938 -30.148438 Z M 103.960938 -24.117188 "/></g></g></g><g fill="#ffffff" fill-opacity="1"><g transform="translate(251.255118, 241.595403)"><g><path d="M 5.480469 -2.742188 C 5.480469 -1.277344 6.761719 0 8.222656 0 L 20.464844 0 C 21.925781 0 23.203125 -1.277344 23.203125 -2.742188 L 23.203125 -73.265625 L 86.605469 -73.265625 C 87.335938 -73.265625 87.882812 -73.085938 88.433594 -72.71875 L 103.050781 -58.832031 C 103.960938 -57.917969 104.328125 -57.003906 104.328125 -55.726562 L 104.328125 -2.742188 C 104.328125 -1.277344 105.605469 0 107.070312 0 L 119.308594 0 C 120.773438 0 122.050781 -1.277344 122.050781 -2.742188 L 122.050781 -61.207031 C 122.050781 -63.035156 121.320312 -64.496094 120.042969 -65.957031 L 97.019531 -89.164062 C 95.558594 -90.625 93.914062 -91.355469 91.539062 -91.355469 L 10.597656 -91.355469 C 7.675781 -91.355469 5.480469 -89.164062 5.480469 -86.238281 Z M 5.480469 -2.742188 "/></g></g></g><path stroke-linecap="round" transform="matrix(0.0109375, 0, 0, -0.0109375, 203.952046, 331.057713)" fill="none" stroke-linejoin="round" d="M 5122.955953 10681.70562 C 5123.670238 10681.70562 5140.09881 10681.70562 5156.527383 10681.70562 " stroke="#231f20" stroke-width="1.2" stroke-opacity="1" stroke-miterlimit="4"/><path stroke-linecap="round" transform="matrix(0.0109375, 0, 0, -0.0109375, 203.952046, 331.057713)" fill="none" stroke-linejoin="round" d="M 5156.527383 10681.70562 C 5182.241669 10681.70562 5190.813098 10681.70562 5190.098812 10681.70562 " stroke="#231f20" stroke-width="1.2" stroke-opacity="1" stroke-miterlimit="4"/><g clip-path="url(#3343197e99)"><path fill="#ffffff" d="M 260.351562 210.664062 C 261.328125 210.664062 262.125 211.359375 262.125 212.207031 C 262.125 213.0625 261.328125 213.753906 260.351562 213.753906 C 259.375 213.753906 258.582031 213.0625 258.582031 212.207031 C 258.582031 211.359375 259.375 210.664062 260.351562 210.664062 Z M 260.351562 214.226562 C 261.394531 214.226562 262.273438 213.625 262.566406 212.800781 L 271.851562 212.800781 L 271.851562 217.640625 L 298.230469 217.640625 C 298.507812 218.335938 299.265625 218.832031 300.15625 218.832031 C 301.285156 218.832031 302.199219 218.035156 302.199219 217.050781 C 302.199219 216.066406 301.285156 215.269531 300.15625 215.269531 C 299.265625 215.269531 298.507812 215.765625 298.230469 216.457031 L 273.210938 216.457031 L 273.210938 212.800781 L 292.96875 212.800781 L 302.707031 204.3125 L 364.644531 204.3125 C 364.925781 205.007812 365.683594 205.503906 366.574219 205.503906 C 367.703125 205.503906 368.617188 204.707031 368.617188 203.722656 C 368.617188 202.738281 367.703125 201.941406 366.574219 201.941406 C 365.683594 201.941406 364.925781 202.4375 364.644531 203.128906 L 302.144531 203.128906 L 292.40625 211.617188 L 262.566406 211.617188 C 262.273438 210.792969 261.394531 210.191406 260.351562 210.191406 C 259.078125 210.191406 258.039062 211.097656 258.039062 212.207031 C 258.039062 213.320312 259.078125 214.226562 260.351562 214.226562 " fill-opacity="1" fill-rule="nonzero"/></g><path stroke-linecap="round" transform="matrix(0.0109375, 0, 0, -0.0109375, 203.952046, 331.057713)" fill="none" stroke-linejoin="round" d="M 5156.527383 8840.991267 C 5182.241669 8840.991267 5190.813098 8840.991267 5190.098812 8840.991267 " stroke="#231f20" stroke-width="1.2" stroke-opacity="1" stroke-miterlimit="4"/><path stroke-linecap="round" transform="matrix(0.0109375, 0, 0, -0.0109375, 203.952046, 331.057713)" fill="none" stroke-linejoin="round" d="M 5156.527383 8840.991267 C 5140.09881 8840.991267 5123.670238 8840.991267 5122.955953 8840.991267 " stroke="#231f20" stroke-width="1.2" stroke-opacity="1" stroke-miterlimit="4"/><g clip-path="url(#78f3726fce)"><path fill="#ffffff" d="M 262.125 232.339844 C 262.125 233.191406 261.328125 233.882812 260.351562 233.882812 C 259.375 233.882812 258.582031 233.191406 258.582031 232.339844 C 258.582031 231.488281 259.375 230.796875 260.351562 230.796875 C 261.328125 230.796875 262.125 231.488281 262.125 232.339844 Z M 352.246094 237.863281 C 351.355469 237.863281 350.597656 238.359375 350.320312 239.050781 L 302.027344 239.050781 L 298.519531 235.992188 L 303.273438 231.847656 L 320.421875 231.847656 C 320.703125 232.539062 321.460938 233.035156 322.351562 233.035156 C 323.480469 233.035156 324.394531 232.238281 324.394531 231.253906 C 324.394531 230.273438 323.480469 229.472656 322.351562 229.472656 C 321.460938 229.472656 320.703125 229.972656 320.421875 230.664062 L 302.710938 230.664062 L 297.558594 235.15625 L 293.648438 231.75 L 262.566406 231.75 C 262.273438 230.921875 261.394531 230.324219 260.351562 230.324219 C 259.078125 230.324219 258.039062 231.226562 258.039062 232.339844 C 258.039062 233.453125 259.078125 234.359375 260.351562 234.359375 C 261.394531 234.359375 262.273438 233.757812 262.566406 232.933594 L 293.085938 232.933594 L 301.464844 240.234375 L 350.320312 240.234375 C 350.597656 240.925781 351.355469 241.421875 352.246094 241.421875 C 353.375 241.421875 354.289062 240.625 354.289062 239.644531 C 354.289062 238.660156 353.375 237.863281 352.246094 237.863281 " fill-opacity="1" fill-rule="nonzero"/></g><path stroke-linecap="round" transform="matrix(0.0109375, 0, 0, -0.0109375, 203.952046, 331.057713)" fill="none" stroke-linejoin="round" d="M 9194.384672 10898.134199 C 9177.9561 10898.134199 9161.527528 10898.134199 9160.813243 10898.134199 " stroke="#231f20" stroke-width="1.2" stroke-opacity="1" stroke-miterlimit="4"/><path stroke-linecap="round" transform="matrix(0.0109375, 0, 0, -0.0109375, 203.952046, 331.057713)" fill="none" stroke-linejoin="round" d="M 9227.956102 10898.134199 C 9228.670388 10898.134199 9219.741816 10898.134199 9194.384672 10898.134199 " stroke="#231f20" stroke-width="1.2" stroke-opacity="1" stroke-miterlimit="4"/><path fill="#ffffff" d="M 304.515625 211.386719 C 303.539062 211.386719 302.742188 210.691406 302.742188 209.839844 C 302.742188 208.988281 303.539062 208.296875 304.515625 208.296875 C 305.492188 208.296875 306.285156 208.988281 306.285156 209.839844 C 306.285156 210.691406 305.492188 211.386719 304.515625 211.386719 Z M 306.726562 210.433594 L 320.714844 210.433594 L 323.886719 213.195312 L 334.238281 213.195312 C 334.519531 213.886719 335.277344 214.382812 336.164062 214.382812 C 337.292969 214.382812 338.207031 213.585938 338.207031 212.601562 C 338.207031 211.621094 337.292969 210.824219 336.164062 210.824219 C 335.277344 210.824219 334.519531 211.320312 334.238281 212.011719 L 324.449219 212.011719 L 321.277344 209.25 L 306.726562 209.25 C 306.4375 208.425781 305.554688 207.824219 304.515625 207.824219 C 303.238281 207.824219 302.199219 208.726562 302.199219 209.839844 C 302.199219 210.953125 303.238281 211.859375 304.515625 211.859375 C 305.554688 211.859375 306.4375 211.257812 306.726562 210.433594 " fill-opacity="1" fill-rule="nonzero"/><path stroke-linecap="round" transform="matrix(0.0109375, 0, 0, -0.0109375, 203.952046, 331.057713)" fill="none" stroke-linejoin="round" d="M 9556.527543 10460.27704 C 9582.241829 10460.27704 9591.170401 10460.27704 9590.456115 10460.27704 " stroke="#231f20" stroke-width="1.2" stroke-opacity="1" stroke-miterlimit="4"/><path stroke-linecap="round" transform="matrix(0.0109375, 0, 0, -0.0109375, 203.952046, 331.057713)" fill="none" stroke-linejoin="round" d="M 9556.527543 10460.27704 C 9540.098971 10460.27704 9524.027542 10460.27704 9522.956113 10460.27704 " stroke="#231f20" stroke-width="1.2" stroke-opacity="1" stroke-miterlimit="4"/><path fill="#ffffff" d="M 310.25 214.628906 C 310.25 215.480469 309.457031 216.171875 308.476562 216.171875 C 307.5 216.171875 306.707031 215.480469 306.707031 214.628906 C 306.707031 213.777344 307.5 213.085938 308.476562 213.085938 C 309.457031 213.085938 310.25 213.777344 310.25 214.628906 Z M 355.820312 217.910156 L 324.929688 217.910156 L 320.484375 214.039062 L 310.691406 214.039062 C 310.402344 213.210938 309.519531 212.613281 308.476562 212.613281 C 307.203125 212.613281 306.164062 213.515625 306.164062 214.628906 C 306.164062 215.742188 307.203125 216.648438 308.476562 216.648438 C 309.519531 216.648438 310.402344 216.046875 310.691406 215.222656 L 319.921875 215.222656 L 324.367188 219.09375 L 355.820312 219.09375 C 356.101562 219.785156 356.859375 220.28125 357.75 220.28125 C 358.878906 220.28125 359.792969 219.484375 359.792969 218.5 C 359.792969 217.519531 358.878906 216.71875 357.75 216.71875 C 356.859375 216.71875 356.101562 217.21875 355.820312 217.910156 " fill-opacity="1" fill-rule="nonzero"/><path stroke-linecap="round" transform="matrix(0.0109375, 0, 0, -0.0109375, 203.952046, 331.057713)" fill="none" stroke-linejoin="round" d="M 5550.098825 9761.348443 C 5575.455969 9761.348443 5584.384541 9761.348443 5583.670255 9761.348443 " stroke="#231f20" stroke-width="1.2" stroke-opacity="1" stroke-miterlimit="4"/><path stroke-linecap="round" transform="matrix(0.0109375, 0, 0, -0.0109375, 203.952046, 331.057713)" fill="none" stroke-linejoin="round" d="M 5550.098825 9761.348443 C 5533.670253 9761.348443 5517.241681 9761.348443 5516.527396 9761.348443 " stroke="#231f20" stroke-width="1.2" stroke-opacity="1" stroke-miterlimit="4"/><path fill="#ffffff" d="M 266.425781 222.273438 C 266.425781 223.125 265.632812 223.820312 264.65625 223.820312 C 263.679688 223.820312 262.882812 223.125 262.882812 222.273438 C 262.882812 221.421875 263.679688 220.730469 264.65625 220.730469 C 265.632812 220.730469 266.425781 221.421875 266.425781 222.273438 Z M 361.253906 228.984375 L 332.828125 228.984375 L 328.300781 225.039062 L 309.726562 225.039062 L 314.078125 221.246094 L 329.320312 221.246094 L 334.101562 225.410156 L 343.296875 225.410156 C 343.578125 226.105469 344.335938 226.601562 345.226562 226.601562 C 346.351562 226.601562 347.269531 225.804688 347.269531 224.820312 C 347.269531 223.835938 346.351562 223.039062 345.226562 223.039062 C 344.335938 223.039062 343.578125 223.535156 343.296875 224.226562 L 334.664062 224.226562 L 329.882812 220.0625 L 313.515625 220.0625 L 307.808594 225.039062 L 288.667969 225.039062 L 284.816406 221.683594 L 266.867188 221.683594 C 266.578125 220.859375 265.695312 220.257812 264.65625 220.257812 C 263.378906 220.257812 262.339844 221.160156 262.339844 222.273438 C 262.339844 223.386719 263.378906 224.292969 264.65625 224.292969 C 265.695312 224.292969 266.578125 223.691406 266.867188 222.867188 L 284.253906 222.867188 L 288.105469 226.222656 L 327.734375 226.222656 L 332.265625 230.167969 L 361.253906 230.167969 C 361.535156 230.863281 362.292969 231.359375 363.179688 231.359375 C 364.308594 231.359375 365.222656 230.5625 365.222656 229.578125 C 365.222656 228.59375 364.308594 227.796875 363.179688 227.796875 C 362.292969 227.796875 361.535156 228.292969 361.253906 228.984375 " fill-opacity="1" fill-rule="nonzero"/><path stroke-linecap="round" transform="matrix(0.0109375, 0, 0, -0.0109375, 203.952046, 331.057713)" fill="none" stroke-linejoin="round" d="M 10840.456161 8507.419826 C 10866.170448 8507.419826 10874.741876 8507.419826 10874.027591 8507.419826 " stroke="#231f20" stroke-width="1.2" stroke-opacity="1" stroke-miterlimit="4"/><path stroke-linecap="round" transform="matrix(0.0109375, 0, 0, -0.0109375, 203.952046, 331.057713)" fill="none" stroke-linejoin="round" d="M 10840.456161 8507.419826 C 10824.027589 8507.419826 10807.599017 8507.419826 10806.884731 8507.419826 " stroke="#231f20" stroke-width="1.2" stroke-opacity="1" stroke-miterlimit="4"/><path fill="#ffffff" d="M 322.519531 237.535156 C 321.542969 237.535156 320.75 236.84375 320.75 235.992188 C 320.75 235.140625 321.542969 234.449219 322.519531 234.449219 C 323.496094 234.449219 324.292969 235.140625 324.292969 235.992188 C 324.292969 236.84375 323.496094 237.535156 322.519531 237.535156 Z M 324.734375 236.582031 L 342.390625 236.582031 C 342.671875 237.277344 343.429688 237.773438 344.320312 237.773438 C 345.449219 237.773438 346.363281 236.976562 346.363281 235.992188 C 346.363281 235.007812 345.449219 234.210938 344.320312 234.210938 C 343.429688 234.210938 342.671875 234.707031 342.390625 235.398438 L 324.734375 235.398438 C 324.441406 234.574219 323.558594 233.972656 322.519531 233.972656 C 321.242188 233.972656 320.203125 234.878906 320.203125 235.992188 C 320.203125 237.105469 321.242188 238.007812 322.519531 238.007812 C 323.558594 238.007812 324.441406 237.410156 324.734375 236.582031 " fill-opacity="1" fill-rule="nonzero"/><path stroke-linecap="round" transform="matrix(0.00959407, 0, 0, -0.00959407, 210.595289, 280.520108)" fill="none" stroke-linejoin="round" d="M 5123.037763 10681.702352 C 5123.852067 10681.702352 5140.138162 10681.702352 5156.831409 10681.702352 " stroke="#231f20" stroke-width="1.2" stroke-opacity="1" stroke-miterlimit="4"/><path stroke-linecap="round" transform="matrix(0.00959407, 0, 0, -0.00959407, 210.595289, 280.520108)" fill="none" stroke-linejoin="round" d="M 5156.831409 10681.702352 C 5182.074855 10681.702352 5191.032207 10681.702352 5190.217902 10681.702352 " stroke="#231f20" stroke-width="1.2" stroke-opacity="1" stroke-miterlimit="4"/><g clip-path="url(#f688d8e959)"><path fill="#ffffff" d="M 260.070312 174.914062 C 260.925781 174.914062 261.621094 175.523438 261.621094 176.269531 C 261.621094 177.015625 260.925781 177.625 260.070312 177.625 C 259.210938 177.625 258.515625 177.015625 258.515625 176.269531 C 258.515625 175.523438 259.210938 174.914062 260.070312 174.914062 Z M 260.070312 178.039062 C 260.980469 178.039062 261.753906 177.511719 262.011719 176.789062 L 270.15625 176.789062 L 270.15625 181.035156 L 293.292969 181.035156 C 293.539062 181.644531 294.203125 182.078125 294.984375 182.078125 C 295.972656 182.078125 296.777344 181.378906 296.777344 180.515625 C 296.777344 179.652344 295.972656 178.953125 294.984375 178.953125 C 294.203125 178.953125 293.539062 179.390625 293.292969 179.996094 L 271.347656 179.996094 L 271.347656 176.789062 L 288.679688 176.789062 L 297.222656 169.34375 L 351.550781 169.34375 C 351.796875 169.953125 352.460938 170.386719 353.242188 170.386719 C 354.230469 170.386719 355.035156 169.6875 355.035156 168.824219 C 355.035156 167.960938 354.230469 167.261719 353.242188 167.261719 C 352.460938 167.261719 351.796875 167.699219 351.550781 168.304688 L 296.726562 168.304688 L 288.183594 175.75 L 262.011719 175.75 C 261.753906 175.027344 260.980469 174.5 260.070312 174.5 C 258.949219 174.5 258.039062 175.292969 258.039062 176.269531 C 258.039062 177.246094 258.949219 178.039062 260.070312 178.039062 " fill-opacity="1" fill-rule="nonzero"/></g><path stroke-linecap="round" transform="matrix(0.00959407, 0, 0, -0.00959407, 210.595289, 280.520108)" fill="none" stroke-linejoin="round" d="M 5156.831409 8840.966519 C 5182.074855 8840.966519 5191.032207 8840.966519 5190.217902 8840.966519 " stroke="#231f20" stroke-width="1.2" stroke-opacity="1" stroke-miterlimit="4"/><path stroke-linecap="round" transform="matrix(0.00959407, 0, 0, -0.00959407, 210.595289, 280.520108)" fill="none" stroke-linejoin="round" d="M 5156.831409 8840.966519 C 5140.138162 8840.966519 5123.852067 8840.966519 5123.037763 8840.966519 " stroke="#231f20" stroke-width="1.2" stroke-opacity="1" stroke-miterlimit="4"/><g clip-path="url(#d53811a47d)"><path fill="#ffffff" d="M 261.621094 193.929688 C 261.621094 194.675781 260.925781 195.28125 260.070312 195.28125 C 259.210938 195.28125 258.515625 194.675781 258.515625 193.929688 C 258.515625 193.179688 259.210938 192.574219 260.070312 192.574219 C 260.925781 192.574219 261.621094 193.179688 261.621094 193.929688 Z M 340.675781 198.773438 C 339.894531 198.773438 339.230469 199.207031 338.984375 199.816406 L 296.625 199.816406 L 293.546875 197.132812 L 297.71875 193.496094 L 312.761719 193.496094 C 313.007812 194.101562 313.671875 194.539062 314.449219 194.539062 C 315.441406 194.539062 316.246094 193.839844 316.246094 192.976562 C 316.246094 192.113281 315.441406 191.414062 314.449219 191.414062 C 313.671875 191.414062 313.007812 191.851562 312.761719 192.457031 L 297.222656 192.457031 L 292.703125 196.398438 L 289.273438 193.410156 L 262.011719 193.410156 C 261.753906 192.683594 260.980469 192.160156 260.070312 192.160156 C 258.949219 192.160156 258.039062 192.953125 258.039062 193.929688 C 258.039062 194.902344 258.949219 195.699219 260.070312 195.699219 C 260.980469 195.699219 261.753906 195.171875 262.011719 194.449219 L 288.78125 194.449219 L 296.132812 200.851562 L 338.984375 200.851562 C 339.230469 201.460938 339.894531 201.894531 340.675781 201.894531 C 341.664062 201.894531 342.46875 201.195312 342.46875 200.332031 C 342.46875 199.472656 341.664062 198.773438 340.675781 198.773438 " fill-opacity="1" fill-rule="nonzero"/></g><path stroke-linecap="round" transform="matrix(0.00959407, 0, 0, -0.00959407, 210.595289, 280.520108)" fill="none" stroke-linejoin="round" d="M 9194.154238 10898.307409 C 9177.868144 10898.307409 9161.582049 10898.307409 9160.767745 10898.307409 " stroke="#231f20" stroke-width="1.2" stroke-opacity="1" stroke-miterlimit="4"/><path stroke-linecap="round" transform="matrix(0.00959407, 0, 0, -0.00959407, 210.595289, 280.520108)" fill="none" stroke-linejoin="round" d="M 9227.947885 10898.307409 C 9228.762189 10898.307409 9219.804837 10898.307409 9194.154238 10898.307409 " stroke="#231f20" stroke-width="1.2" stroke-opacity="1" stroke-miterlimit="4"/><path fill="#ffffff" d="M 298.804688 175.546875 C 297.949219 175.546875 297.253906 174.9375 297.253906 174.191406 C 297.253906 173.445312 297.949219 172.835938 298.804688 172.835938 C 299.664062 172.835938 300.359375 173.445312 300.359375 174.191406 C 300.359375 174.9375 299.664062 175.546875 298.804688 175.546875 Z M 300.746094 174.710938 L 313.015625 174.710938 L 315.796875 177.136719 L 324.878906 177.136719 C 325.125 177.742188 325.789062 178.175781 326.570312 178.175781 C 327.558594 178.175781 328.363281 177.476562 328.363281 176.613281 C 328.363281 175.753906 327.558594 175.054688 326.570312 175.054688 C 325.789062 175.054688 325.125 175.488281 324.878906 176.097656 L 316.292969 176.097656 L 313.511719 173.671875 L 300.746094 173.671875 C 300.492188 172.949219 299.71875 172.421875 298.804688 172.421875 C 297.6875 172.421875 296.777344 173.214844 296.777344 174.191406 C 296.777344 175.167969 297.6875 175.960938 298.804688 175.960938 C 299.71875 175.960938 300.492188 175.433594 300.746094 174.710938 " fill-opacity="1" fill-rule="nonzero"/><path stroke-linecap="round" transform="matrix(0.00959407, 0, 0, -0.00959407, 210.595289, 280.520108)" fill="none" stroke-linejoin="round" d="M 9556.519841 10460.211466 C 9582.17044 10460.211466 9591.127792 10460.211466 9590.313487 10460.211466 " stroke="#231f20" stroke-width="1.2" stroke-opacity="1" stroke-miterlimit="4"/><path stroke-linecap="round" transform="matrix(0.00959407, 0, 0, -0.00959407, 210.595289, 280.520108)" fill="none" stroke-linejoin="round" d="M 9556.519841 10460.211466 C 9540.233747 10460.211466 9523.947652 10460.211466 9523.133348 10460.211466 " stroke="#231f20" stroke-width="1.2" stroke-opacity="1" stroke-miterlimit="4"/><path fill="#ffffff" d="M 303.835938 178.390625 C 303.835938 179.140625 303.140625 179.746094 302.28125 179.746094 C 301.425781 179.746094 300.730469 179.140625 300.730469 178.390625 C 300.730469 177.644531 301.425781 177.039062 302.28125 177.039062 C 303.140625 177.039062 303.835938 177.644531 303.835938 178.390625 Z M 343.8125 181.269531 L 316.710938 181.269531 L 312.816406 177.875 L 304.222656 177.875 C 303.96875 177.148438 303.195312 176.625 302.28125 176.625 C 301.164062 176.625 300.253906 177.417969 300.253906 178.390625 C 300.253906 179.367188 301.164062 180.164062 302.28125 180.164062 C 303.195312 180.164062 303.96875 179.636719 304.222656 178.914062 L 312.320312 178.914062 L 316.21875 182.308594 L 343.8125 182.308594 C 344.054688 182.914062 344.71875 183.351562 345.5 183.351562 C 346.492188 183.351562 347.292969 182.652344 347.292969 181.789062 C 347.292969 180.925781 346.492188 180.226562 345.5 180.226562 C 344.71875 180.226562 344.054688 180.664062 343.8125 181.269531 " fill-opacity="1" fill-rule="nonzero"/><path stroke-linecap="round" transform="matrix(0.00959407, 0, 0, -0.00959407, 210.595289, 280.520108)" fill="none" stroke-linejoin="round" d="M 5550.140591 9761.538012 C 5575.384038 9761.538012 5584.34139 9761.538012 5583.527085 9761.538012 " stroke="#231f20" stroke-width="1.2" stroke-opacity="1" stroke-miterlimit="4"/><path stroke-linecap="round" transform="matrix(0.00959407, 0, 0, -0.00959407, 210.595289, 280.520108)" fill="none" stroke-linejoin="round" d="M 5550.140591 9761.538012 C 5533.447344 9761.538012 5517.16125 9761.538012 5516.346945 9761.538012 " stroke="#231f20" stroke-width="1.2" stroke-opacity="1" stroke-miterlimit="4"/><path fill="#ffffff" d="M 265.398438 185.097656 C 265.398438 185.847656 264.699219 186.453125 263.84375 186.453125 C 262.984375 186.453125 262.289062 185.847656 262.289062 185.097656 C 262.289062 184.351562 262.984375 183.746094 263.84375 183.746094 C 264.699219 183.746094 265.398438 184.351562 265.398438 185.097656 Z M 348.578125 190.984375 L 323.640625 190.984375 L 319.667969 187.523438 L 303.378906 187.523438 L 307.195312 184.195312 L 320.566406 184.195312 L 324.757812 187.851562 L 332.824219 187.851562 C 333.070312 188.457031 333.734375 188.894531 334.515625 188.894531 C 335.503906 188.894531 336.308594 188.195312 336.308594 187.332031 C 336.308594 186.46875 335.503906 185.769531 334.515625 185.769531 C 333.734375 185.769531 333.070312 186.203125 332.824219 186.8125 L 325.253906 186.8125 L 321.058594 183.15625 L 306.703125 183.15625 L 301.695312 187.523438 L 284.90625 187.523438 L 281.527344 184.578125 L 265.785156 184.578125 C 265.527344 183.855469 264.753906 183.328125 263.84375 183.328125 C 262.722656 183.328125 261.8125 184.121094 261.8125 185.097656 C 261.8125 186.074219 262.722656 186.867188 263.84375 186.867188 C 264.753906 186.867188 265.527344 186.339844 265.785156 185.617188 L 281.035156 185.617188 L 284.410156 188.5625 L 319.175781 188.5625 L 323.148438 192.023438 L 348.578125 192.023438 C 348.820312 192.632812 349.484375 193.066406 350.265625 193.066406 C 351.257812 193.066406 352.058594 192.367188 352.058594 191.503906 C 352.058594 190.640625 351.257812 189.941406 350.265625 189.941406 C 349.484375 189.941406 348.820312 190.378906 348.578125 190.984375 " fill-opacity="1" fill-rule="nonzero"/><path stroke-linecap="round" transform="matrix(0.00959407, 0, 0, -0.00959407, 210.595289, 280.520108)" fill="none" stroke-linejoin="round" d="M 10840.678394 8507.101582 C 10865.92184 8507.101582 10874.879192 8507.101582 10874.064887 8507.101582 " stroke="#231f20" stroke-width="1.2" stroke-opacity="1" stroke-miterlimit="4"/><path stroke-linecap="round" transform="matrix(0.00959407, 0, 0, -0.00959407, 210.595289, 280.520108)" fill="none" stroke-linejoin="round" d="M 10840.678394 8507.101582 C 10823.985147 8507.101582 10807.699052 8507.101582 10806.884748 8507.101582 " stroke="#231f20" stroke-width="1.2" stroke-opacity="1" stroke-miterlimit="4"/><path fill="#ffffff" d="M 314.601562 198.484375 C 313.742188 198.484375 313.046875 197.878906 313.046875 197.132812 C 313.046875 196.382812 313.742188 195.777344 314.601562 195.777344 C 315.457031 195.777344 316.152344 196.382812 316.152344 197.132812 C 316.152344 197.878906 315.457031 198.484375 314.601562 198.484375 Z M 316.539062 197.648438 L 332.03125 197.648438 C 332.277344 198.257812 332.941406 198.691406 333.722656 198.691406 C 334.710938 198.691406 335.515625 197.992188 335.515625 197.132812 C 335.515625 196.269531 334.710938 195.566406 333.722656 195.566406 C 332.941406 195.566406 332.277344 196.003906 332.03125 196.613281 L 316.539062 196.613281 C 316.285156 195.886719 315.511719 195.359375 314.601562 195.359375 C 313.480469 195.359375 312.570312 196.15625 312.570312 197.132812 C 312.570312 198.105469 313.480469 198.902344 314.601562 198.902344 C 315.511719 198.902344 316.285156 198.375 316.539062 197.648438 " fill-opacity="1" fill-rule="nonzero"/><g clip-path="url(#f3dcb36a98)"><g clip-path="url(#9195766b06)"><g clip-path="url(#ef7701dce1)"><path fill="#ffffff" d="M 258.285156 207.339844 L 258.285156 206.257812 L 267.457031 206.257812 L 267.457031 215.140625 L 266.371094 215.140625 L 266.371094 207.34375 L 258.285156 207.339844 " fill-opacity="1" fill-rule="nonzero"/></g></g></g><g clip-path="url(#a22980489e)"><g clip-path="url(#1a17c24464)"><g clip-path="url(#e4d8e58fe0)"><path fill="#ffffff" d="M 250.800781 202.460938 L 250.800781 201.375 L 265.832031 201.375 L 265.832031 202.460938 L 250.800781 202.460938 " fill-opacity="1" fill-rule="nonzero"/></g></g></g><g clip-path="url(#47659f1368)"><g clip-path="url(#b5425143e2)"><g clip-path="url(#fe79076bd7)"><path fill="#ffffff" d="M 275.96875 202.460938 L 275.96875 201.375 L 287.328125 201.375 L 287.328125 202.460938 L 275.96875 202.460938 " fill-opacity="1" fill-rule="nonzero"/></g></g></g><g clip-path="url(#f60000a1d1)"><g clip-path="url(#c865335bc0)"><g clip-path="url(#17cbca7fe6)"><path fill="#ffffff" d="M 267.4375 197.757812 L 267.433594 185.214844 L 268.519531 185.214844 L 268.519531 196.671875 L 279.246094 196.671875 L 279.246094 197.757812 L 267.4375 197.757812 " fill-opacity="1" fill-rule="nonzero"/></g></g></g><g clip-path="url(#75f7021327)"><g clip-path="url(#b0d832a549)"><g clip-path="url(#5d5ea85273)"><path fill="#ffffff" d="M 255.632812 197.757812 L 255.632812 196.671875 L 262.371094 196.671875 L 262.371094 189.917969 L 263.457031 189.917969 L 263.457031 197.757812 L 255.632812 197.757812 " fill-opacity="1" fill-rule="nonzero"/></g></g></g><g clip-path="url(#5a99cc62fc)"><g clip-path="url(#d1c7582f74)"><g clip-path="url(#3e06fd9571)"><path fill="#ffffff" d="M 272.84375 207.339844 L 272.84375 206.257812 L 282.199219 206.257812 L 282.199219 207.339844 L 272.84375 207.339844 " fill-opacity="1" fill-rule="nonzero"/></g></g></g><g clip-path="url(#d2529a27c2)"><g clip-path="url(#c866a82c9f)"><g clip-path="url(#330b86ebf7)"><path fill="#ffffff" d="M 265.894531 216.445312 C 265.894531 215.8125 266.40625 215.296875 267.039062 215.300781 C 267.671875 215.300781 268.183594 215.8125 268.183594 216.445312 C 268.183594 217.078125 267.671875 217.589844 267.039062 217.589844 C 266.40625 217.589844 265.894531 217.078125 265.894531 216.445312 Z M 268.847656 216.445312 C 268.847656 215.445312 268.039062 214.636719 267.039062 214.636719 C 266.039062 214.636719 265.230469 215.445312 265.230469 216.445312 C 265.230469 217.441406 266.039062 218.253906 267.039062 218.253906 C 268.035156 218.253906 268.847656 217.441406 268.847656 216.445312 " fill-opacity="1" fill-rule="nonzero"/></g></g></g><g clip-path="url(#159c89037b)"><g clip-path="url(#4654c874b1)"><g clip-path="url(#353b153cb9)"><path fill="#ffffff" d="M 270.175781 206.800781 C 270.175781 206.167969 270.6875 205.652344 271.320312 205.652344 C 271.953125 205.652344 272.464844 206.167969 272.464844 206.800781 C 272.464844 207.433594 271.953125 207.945312 271.320312 207.945312 C 270.6875 207.945312 270.175781 207.433594 270.175781 206.800781 Z M 273.128906 206.800781 C 273.128906 205.800781 272.320312 204.992188 271.320312 204.992188 C 270.324219 204.992188 269.511719 205.800781 269.511719 206.800781 C 269.511719 207.796875 270.324219 208.605469 271.320312 208.609375 C 272.320312 208.605469 273.128906 207.796875 273.128906 206.800781 " fill-opacity="1" fill-rule="nonzero"/></g></g></g><g clip-path="url(#18f1e16f06)"><g clip-path="url(#35303f246b)"><g clip-path="url(#e8439876cd)"><path fill="#ffffff" d="M 255.84375 206.816406 C 255.835938 206.183594 256.339844 205.664062 256.972656 205.65625 C 257.605469 205.644531 258.125 206.148438 258.136719 206.78125 C 258.144531 207.414062 257.640625 207.933594 257.007812 207.945312 C 256.375 207.953125 255.855469 207.449219 255.84375 206.816406 Z M 258.796875 206.769531 C 258.78125 205.773438 257.960938 204.976562 256.960938 204.992188 C 255.964844 205.007812 255.167969 205.828125 255.183594 206.828125 C 255.199219 207.824219 256.019531 208.621094 257.019531 208.605469 C 258.015625 208.589844 258.8125 207.769531 258.796875 206.769531 " fill-opacity="1" fill-rule="nonzero"/></g></g></g><g clip-path="url(#b53b775c69)"><g clip-path="url(#01a1dc54a7)"><g clip-path="url(#862e0f2dbb)"><path fill="#ffffff" d="M 282.3125 206.800781 C 282.3125 206.167969 282.824219 205.652344 283.457031 205.652344 C 284.089844 205.652344 284.601562 206.167969 284.601562 206.800781 C 284.601562 207.433594 284.089844 207.945312 283.457031 207.945312 C 282.824219 207.945312 282.3125 207.433594 282.3125 206.800781 Z M 285.265625 206.800781 C 285.265625 205.800781 284.453125 204.992188 283.457031 204.992188 C 282.457031 204.992188 281.648438 205.800781 281.648438 206.800781 C 281.648438 207.796875 282.457031 208.609375 283.457031 208.609375 C 284.453125 208.605469 285.265625 207.796875 285.265625 206.800781 " fill-opacity="1" fill-rule="nonzero"/></g></g></g><g clip-path="url(#34fe838759)"><g clip-path="url(#962f95180f)"><g clip-path="url(#cd3bae958a)"><path fill="#ffffff" d="M 266.878906 183.980469 C 266.878906 183.347656 267.390625 182.835938 268.023438 182.835938 C 268.65625 182.835938 269.167969 183.347656 269.167969 183.980469 C 269.167969 184.613281 268.65625 185.125 268.023438 185.125 C 267.390625 185.125 266.878906 184.613281 266.878906 183.980469 Z M 269.832031 183.980469 C 269.832031 182.980469 269.023438 182.171875 268.023438 182.171875 C 267.027344 182.171875 266.214844 182.980469 266.214844 183.980469 C 266.214844 184.980469 267.027344 185.789062 268.023438 185.789062 C 269.023438 185.789062 269.832031 184.980469 269.832031 183.980469 " fill-opacity="1" fill-rule="nonzero"/></g></g></g><g clip-path="url(#e49d37f590)"><g clip-path="url(#ca7187195d)"><g clip-path="url(#1229dd4dc8)"><path fill="#ffffff" d="M 265.894531 201.917969 C 265.894531 201.285156 266.40625 200.773438 267.039062 200.773438 C 267.671875 200.773438 268.183594 201.285156 268.183594 201.917969 C 268.183594 202.550781 267.671875 203.0625 267.039062 203.0625 C 266.40625 203.0625 265.894531 202.550781 265.894531 201.917969 Z M 268.847656 201.917969 C 268.847656 200.917969 268.035156 200.109375 267.039062 200.109375 C 266.039062 200.109375 265.230469 200.917969 265.230469 201.917969 C 265.230469 202.914062 266.039062 203.726562 267.039062 203.726562 C 268.035156 203.726562 268.847656 202.914062 268.847656 201.917969 " fill-opacity="1" fill-rule="nonzero"/></g></g></g><g clip-path="url(#5616bee753)"><g clip-path="url(#02707911d0)"><g clip-path="url(#6f8d0fbf0b)"><path fill="#ffffff" d="M 248.359375 201.917969 C 248.359375 201.285156 248.871094 200.773438 249.503906 200.773438 C 250.136719 200.773438 250.648438 201.285156 250.648438 201.917969 C 250.648438 202.550781 250.136719 203.0625 249.503906 203.0625 C 248.871094 203.0625 248.359375 202.550781 248.359375 201.917969 Z M 251.3125 201.917969 C 251.3125 200.917969 250.503906 200.109375 249.503906 200.109375 C 248.503906 200.109375 247.695312 200.917969 247.695312 201.917969 C 247.695312 202.914062 248.503906 203.726562 249.503906 203.726562 C 250.503906 203.726562 251.3125 202.914062 251.3125 201.917969 " fill-opacity="1" fill-rule="nonzero"/></g></g></g><g clip-path="url(#5b5af203f9)"><g clip-path="url(#75c0789c0f)"><g clip-path="url(#0981f55b13)"><path fill="#ffffff" d="M 261.792969 188.6875 C 261.792969 188.054688 262.304688 187.542969 262.9375 187.542969 C 263.570312 187.542969 264.082031 188.054688 264.082031 188.6875 C 264.082031 189.320312 263.570312 189.832031 262.9375 189.832031 C 262.304688 189.832031 261.792969 189.320312 261.792969 188.6875 Z M 264.746094 188.6875 C 264.746094 187.6875 263.9375 186.878906 262.9375 186.878906 C 261.9375 186.878906 261.128906 187.6875 261.128906 188.6875 C 261.128906 189.6875 261.9375 190.496094 262.9375 190.496094 C 263.9375 190.496094 264.746094 189.6875 264.746094 188.6875 " fill-opacity="1" fill-rule="nonzero"/></g></g></g><g clip-path="url(#aa467b25b0)"><g clip-path="url(#d2dbd196df)"><g clip-path="url(#13b23df441)"><path fill="#ffffff" d="M 253.195312 197.179688 C 253.195312 196.546875 253.707031 196.035156 254.339844 196.035156 C 254.972656 196.035156 255.484375 196.546875 255.484375 197.179688 C 255.484375 197.8125 254.972656 198.324219 254.339844 198.324219 C 253.707031 198.324219 253.195312 197.8125 253.195312 197.179688 Z M 256.148438 197.179688 C 256.148438 196.183594 255.335938 195.371094 254.339844 195.371094 C 253.339844 195.371094 252.53125 196.179688 252.53125 197.179688 C 252.53125 198.179688 253.339844 198.988281 254.339844 198.988281 C 255.335938 198.988281 256.148438 198.179688 256.148438 197.179688 " fill-opacity="1" fill-rule="nonzero"/></g></g></g><g clip-path="url(#da9fb05d88)"><g clip-path="url(#af9061aa34)"><g clip-path="url(#54a6b5b6e1)"><path fill="#ffffff" d="M 273.585938 201.917969 C 273.585938 201.285156 274.097656 200.773438 274.730469 200.773438 C 275.363281 200.773438 275.875 201.285156 275.875 201.917969 C 275.875 202.550781 275.363281 203.0625 274.730469 203.0625 C 274.097656 203.0625 273.585938 202.550781 273.585938 201.917969 Z M 276.539062 201.917969 C 276.539062 200.917969 275.730469 200.109375 274.730469 200.109375 C 273.730469 200.109375 272.921875 200.917969 272.921875 201.917969 C 272.921875 202.914062 273.730469 203.726562 274.730469 203.726562 C 275.730469 203.726562 276.539062 202.914062 276.539062 201.917969 " fill-opacity="1" fill-rule="nonzero"/></g></g></g><g clip-path="url(#94bd73cc7c)"><g clip-path="url(#c728d94a2b)"><g clip-path="url(#c3fa776475)"><path fill="#ffffff" d="M 287.4375 201.917969 C 287.4375 201.285156 287.953125 200.773438 288.582031 200.773438 C 289.214844 200.773438 289.730469 201.285156 289.730469 201.917969 C 289.730469 202.550781 289.214844 203.0625 288.585938 203.0625 C 287.953125 203.0625 287.4375 202.550781 287.4375 201.917969 Z M 290.390625 201.917969 C 290.390625 200.917969 289.582031 200.109375 288.582031 200.109375 C 287.585938 200.109375 286.777344 200.917969 286.777344 201.917969 C 286.777344 202.914062 287.585938 203.726562 288.582031 203.726562 C 289.582031 203.726562 290.390625 202.914062 290.390625 201.917969 " fill-opacity="1" fill-rule="nonzero"/></g></g></g><g clip-path="url(#08eacff4b7)"><g clip-path="url(#8ec2f8ca48)"><g clip-path="url(#15fd7c69b8)"><path fill="#ffffff" d="M 279.355469 197.097656 C 279.355469 196.464844 279.871094 195.949219 280.503906 195.949219 C 281.136719 195.949219 281.648438 196.464844 281.648438 197.097656 C 281.648438 197.726562 281.136719 198.242188 280.503906 198.242188 C 279.871094 198.242188 279.359375 197.726562 279.355469 197.097656 Z M 282.3125 197.097656 C 282.3125 196.097656 281.5 195.289062 280.503906 195.289062 C 279.503906 195.289062 278.695312 196.097656 278.695312 197.09375 C 278.695312 198.09375 279.503906 198.902344 280.503906 198.902344 C 281.5 198.902344 282.308594 198.09375 282.3125 197.097656 " fill-opacity="1" fill-rule="nonzero"/></g></g></g><g clip-path="url(#9580a0834f)"><path fill="#000000" d="M 246.695312 177.882812 L 256.148438 177.882812 L 256.148438 241.46875 L 246.695312 241.46875 Z M 246.695312 177.882812 " fill-opacity="1" fill-rule="nonzero"/></g></svg>