<svg xmlns="http://www.w3.org/2000/svg" xmlns:xlink="http://www.w3.org/1999/xlink" width="500" zoomAndPan="magnify" viewBox="0 0 375 374.999991" height="500" preserveAspectRatio="xMidYMid meet" version="1.0"><defs><g/></defs><g fill="#ffffff" fill-opacity="1"><g transform="translate(-3.808927, 241.595403)"><g><path d="M 119.308594 -91.355469 L 29.417969 -91.355469 C 27.222656 -91.355469 25.761719 -90.808594 24.117188 -89.164062 L 7.675781 -72.71875 C 6.578125 -71.621094 5.480469 -69.796875 5.480469 -67.96875 L 5.480469 -2.742188 C 5.480469 -1.277344 6.761719 0 8.222656 0 L 21.925781 0 C 23.386719 0 24.664062 -1.277344 24.664062 -2.742188 L 24.664062 -26.859375 L 102.136719 -26.859375 C 103.597656 -26.859375 104.875 -28.136719 104.875 -29.597656 L 104.875 -42.207031 C 104.875 -43.667969 103.597656 -44.945312 102.136719 -44.945312 L 24.664062 -44.945312 L 24.664062 -63.21875 C 24.664062 -64.496094 25.03125 -65.410156 25.945312 -66.324219 L 31.792969 -71.804688 C 32.886719 -72.902344 33.617188 -73.265625 34.53125 -73.265625 L 119.308594 -73.265625 C 120.773438 -73.265625 122.050781 -74.546875 122.050781 -76.007812 L 122.050781 -88.613281 C 122.050781 -90.078125 120.773438 -91.355469 119.308594 -91.355469 Z M 119.308594 -91.355469 "/></g></g></g><g fill="#ffffff" fill-opacity="1"><g transform="translate(123.723095, 241.595403)"><g><path d="M 119.859375 -39.832031 L 110.539062 -48.785156 L 112.914062 -51.160156 C 114.378906 -52.621094 115.109375 -54.265625 115.109375 -56.640625 L 115.109375 -71.441406 C 115.109375 -73.816406 114.378906 -75.460938 112.914062 -76.921875 L 100.125 -89.34375 C 98.847656 -90.441406 97.203125 -91.355469 95.375 -91.355469 L 8.222656 -91.355469 C 6.761719 -91.355469 5.480469 -90.078125 5.480469 -88.613281 L 5.480469 -2.742188 C 5.480469 -1.277344 6.761719 0 8.222656 0 L 102.316406 0 C 104.144531 0 105.789062 -0.914062 107.070312 -2.011719 L 119.859375 -14.433594 C 121.320312 -15.894531 122.050781 -17.539062 122.050781 -19.914062 L 122.050781 -34.351562 C 122.050781 -36.726562 121.320312 -38.371094 119.859375 -39.832031 Z M 90.625 -73.632812 C 91.902344 -73.632812 93 -73.265625 93.730469 -72.355469 L 96.472656 -69.066406 C 96.835938 -68.515625 97.019531 -67.96875 97.019531 -67.238281 L 97.019531 -60.84375 C 97.019531 -60.113281 96.835938 -59.5625 96.472656 -59.015625 L 93.730469 -55.726562 C 93 -54.8125 91.902344 -54.449219 90.625 -54.449219 L 23.386719 -54.449219 L 23.386719 -73.632812 Z M 103.960938 -24.117188 C 103.960938 -23.386719 103.78125 -22.839844 103.414062 -22.289062 L 100.671875 -19 C 99.941406 -18.089844 98.847656 -17.722656 97.566406 -17.722656 L 23.386719 -17.722656 L 23.386719 -36.542969 L 97.566406 -36.542969 C 98.847656 -36.542969 99.941406 -36.175781 100.671875 -35.261719 L 103.414062 -31.972656 C 103.78125 -31.425781 103.960938 -30.878906 103.960938 -30.148438 Z M 103.960938 -24.117188 "/></g></g></g><g fill="#ffffff" fill-opacity="1"><g transform="translate(251.255118, 241.595403)"><g><path d="M 5.480469 -2.742188 C 5.480469 -1.277344 6.761719 0 8.222656 0 L 20.464844 0 C 21.925781 0 23.203125 -1.277344 23.203125 -2.742188 L 23.203125 -73.265625 L 86.605469 -73.265625 C 87.335938 -73.265625 87.882812 -73.085938 88.433594 -72.71875 L 103.050781 -58.832031 C 103.960938 -57.917969 104.328125 -57.003906 104.328125 -55.726562 L 104.328125 -2.742188 C 104.328125 -1.277344 105.605469 0 107.070312 0 L 119.308594 0 C 120.773438 0 122.050781 -1.277344 122.050781 -2.742188 L 122.050781 -61.207031 C 122.050781 -63.035156 121.320312 -64.496094 120.042969 -65.957031 L 97.019531 -89.164062 C 95.558594 -90.625 93.914062 -91.355469 91.539062 -91.355469 L 10.597656 -91.355469 C 7.675781 -91.355469 5.480469 -89.164062 5.480469 -86.238281 Z M 5.480469 -2.742188 "/></g></g></g></svg>